<mxfile host="app.diagrams.net" modified="2024-05-10T06:42:16.352Z" agent="Mozilla/5.0 (Windows NT 10.0; Win64; x64) AppleWebKit/537.36 (KHTML, like Gecko) Chrome/124.0.0.0 Safari/537.36 Edg/124.0.0.0" version="24.3.1" etag="4A0rF3z0DoGzQIeg8g1V" type="github">
  <diagram name="PÃ¡gina-1" id="bzpT1AY3sL6MehfYmgCY">
    <mxGraphModel>
      <root>
        <mxCell id="0" />
        <mxCell id="1" parent="0" />
      </root>
    </mxGraphModel>
  </diagram>
</mxfile>
